<?xml version="1.0" encoding="utf-8"?><svg version="1.1" id="Layer_1" xmlns="http://www.w3.org/2000/svg" xmlns:xlink="http://www.w3.org/1999/xlink" x="0px" y="0px" viewBox="0 0 115.28 122.88" style="enable-background:new 0 0 115.28 122.88" xml:space="preserve"><style type="text/css">.st0{fill-rule:evenodd;clip-rule:evenodd;}</style><g><path class="st0" d="M25.38,57h64.88V37.34H69.59c-2.17,0-5.19-1.17-6.62-2.6c-1.43-1.43-2.3-4.01-2.3-6.17V7.64l0,0H8.15 c-0.18,0-0.32,0.09-0.41,0.18C7.59,7.92,7.55,8.05,7.55,8.24v106.45c0,0.14,0.09,0.32,0.18,0.41c0.09,0.14,0.28,0.18,0.41,0.18 c22.78,0,58.09,0,81.51,0c0.18,0,0.17-0.09,0.27-0.18c0.14-0.09,0.33-0.28,0.33-0.41v-11.16H25.38c-4.14,0-7.56-3.4-7.56-7.56 V64.55C17.82,60.4,21.22,57,25.38,57L25.38,57z M29.86,68.02h9.82l3.74,14.66l3.75-14.66h9.78v24.1h-6.09V73.75l-4.7,18.37h-5.52 l-4.69-18.37v18.37h-6.09V68.02L29.86,68.02z M60.6,68.02h12.39c2.7,0,4.72,0.64,6.06,1.92c1.34,1.28,2.01,3.11,2.01,5.49 c0,2.43-0.73,4.34-2.2,5.71c-1.46,1.37-3.7,2.06-6.71,2.06h-4.08v8.92H60.6V68.02L60.6,68.02z M68.08,78.32h1.83 c1.45,0,2.46-0.25,3.05-0.75c0.58-0.5,0.88-1.14,0.88-1.92c0-0.76-0.25-1.4-0.76-1.92c-0.5-0.53-1.46-0.79-2.86-0.79h-2.13V78.32 L68.08,78.32z M88.72,74.99l-6.33-1.13c0.53-2.01,1.53-3.56,3.03-4.63c1.49-1.07,3.61-1.61,6.34-1.61c3.14,0,5.41,0.58,6.81,1.76 c1.4,1.17,2.1,2.65,2.1,4.42c0,1.04-0.29,1.98-0.85,2.82c-0.57,0.84-1.42,1.58-2.56,2.22c0.93,0.23,1.64,0.5,2.13,0.81 c0.8,0.49,1.42,1.14,1.86,1.95c0.44,0.81,0.67,1.77,0.67,2.88c0,1.4-0.36,2.75-1.1,4.04c-0.73,1.28-1.79,2.28-3.17,2.97 c-1.38,0.7-3.19,1.04-5.44,1.04c-2.19,0-3.92-0.26-5.18-0.77c-1.27-0.52-2.31-1.27-3.12-2.26c-0.81-0.99-1.44-2.24-1.88-3.75 l6.7-0.89c0.26,1.35,0.67,2.29,1.22,2.82c0.55,0.52,1.25,0.79,2.11,0.79c0.89,0,1.64-0.33,2.24-0.99c0.59-0.66,0.89-1.53,0.89-2.63 c0-1.12-0.29-1.98-0.86-2.6c-0.57-0.61-1.35-0.92-2.33-0.92c-0.52,0-1.25,0.13-2.16,0.39l0.35-4.79c0.36,0.06,0.65,0.08,0.86,0.08 c0.86,0,1.59-0.28,2.17-0.84c0.58-0.56,0.87-1.21,0.87-1.97c0-0.74-0.22-1.32-0.65-1.75c-0.44-0.44-1.04-0.66-1.8-0.66 c-0.79,0-1.42,0.24-1.91,0.71C89.22,72.97,88.89,73.8,88.72,74.99L88.72,74.99z M97.79,57h9.93c4.16,0,7.56,3.41,7.56,7.56v31.42 c0,4.15-3.41,7.56-7.56,7.56h-9.93v13.55c0,1.61-0.65,3.04-1.7,4.1c-1.06,1.06-2.49,1.7-4.1,1.7c-29.44,0-56.59,0-86.18,0 c-1.61,0-3.04-0.64-4.1-1.7c-1.06-1.06-1.7-2.49-1.7-4.1V5.85c0-1.61,0.65-3.04,1.7-4.1c1.06-1.06,2.53-1.7,4.1-1.7h58.72 C64.66,0,64.8,0,64.94,0c0.64,0,1.29,0.28,1.75,0.69h0.09c0.09,0.05,0.14,0.09,0.23,0.18l29.99,30.36c0.51,0.51,0.88,1.2,0.88,1.98 c0,0.23-0.05,0.41-0.09,0.65V57L97.79,57z M67.52,27.97V8.94l21.43,21.7H70.19c-0.74,0-1.38-0.32-1.89-0.78 C67.84,29.4,67.52,28.71,67.52,27.97L67.52,27.97z"/></g></svg>
